<svg id="レイヤー_1" data-name="レイヤー 1" xmlns="http://www.w3.org/2000/svg" width="392" height="96" viewBox="0 0 392 96"><defs><clipPath id="clip-path"><path id="SVGID" class="cls-1" d="M105.707 35.912L91.43 45.481v18.593l14.277-6.67V35.912z"/></clipPath><clipPath id="clip-path-2"><path id="SVGID-2" data-name="SVGID" class="cls-1" d="M105.678 62.227l-14.236 6.336v18.722l14.209-1.129.027-23.929z"/></clipPath><clipPath id="clip-path-3"><path id="SVGID-3" data-name="SVGID" class="cls-1" d="M16.426 36.547l14.278 8.934v18.593l-14.278-6.67V36.547z"/></clipPath><clipPath id="clip-path-4"><path id="SVGID-4" data-name="SVGID" class="cls-1" d="M16.457 62.227l14.235 6.336v18.722l-14.211-1.129-.024-23.929z"/></clipPath><style>.cls-1{fill:none}.cls-2{fill:#ed6c00}.cls-3{fill:#c9a06c}.cls-4{fill:#7c3e1e}.cls-7{fill:#b0d6da}.cls-8{fill:#fff}.cls-12{fill:#2d0e00}.cls-14{fill:#f8c6bd}.cls-16{fill:#db4713}.cls-17{fill:#231815}</style></defs><path class="cls-2" d="M132.574 46.058l.436 11.257 30.993-.083.229-11.455-31.658.281zM128.647 83.344l-.116 10.863 42.108-.172-.54-10.942-41.452.251zM257.307 65.765l-1.848 23.822h12.012l1.87-23.822h-12.034z"/><path class="cls-2" d="M260.079 46.714l.101 10.69h15.703l-.635 36.714 13.525.022-.35-36.928 18.364-.172-.597-10.508-17.91-.147-.106-4.122-12.294-.183.14 4.482-15.941.152z"/><path class="cls-2" d="M296.057 65.998l2.158 23.589 11.774-.228-2.658-23.814-11.274.453zM314.352 61.367l.073 9.953 26.04.375-.583-10.159-25.53-.169zM186.185 72.571a.794.794 0 001.587 0c0-.916 1.054-1.679 2.313-1.679s2.326.763 2.326 1.679a.781.781 0 00.788.786.8.8 0 00.806-.786c0-1.815-1.759-3.249-3.92-3.249s-3.9 1.434-3.9 3.249m4.009-7.089a6.174 6.174 0 11-6.18 6.181 6.179 6.179 0 016.18-6.181M382.665 74.364l-10.488.833 1.552 4.081-16.404 1.682 13.047-37.824-14.241-.187-17.847 51.474 39.427-4.129 1.427 3.869h.04l12.439-.166-8.952-19.633zM233.227 46.923l.986-4.585-12.794.057-.945 4.45-15.42-.131.25 10.221 12.756.177-5.621 27.578 12.635.204 5.972-27.803h7.039l-7.363 37.771 12.016-.185 9.824-47.604-19.335-.15zM176.628 65.482a6.174 6.174 0 11-6.171 6.181 6.173 6.173 0 016.171-6.181m-3.95 7.089a.8.8 0 001.59 0c0-.916 1.065-1.679 2.319-1.679s2.318.763 2.318 1.679a.78.78 0 00.789.786.791.791 0 00.8-.786c0-1.815-1.751-3.249-3.906-3.249s-3.909 1.434-3.909 3.249"/><path class="cls-2" d="M199.942 72.025l-18.084 22.376 11.359.109 18.29-22.518-11.565.033z"/><g><path class="cls-3" d="M93.329 40.77v51.748l-64.352.316V40.77h64.352z"/><path class="cls-4" d="M28.525 93.287V40.322H93.78v52.641zm.9-52.06v51.152l63.45-.312v-50.84z"/><path fill="#5e4c3f" d="M33.643 43.879h54.985v46.992H33.643z"/><path class="cls-4" d="M89.08 91.32H33.193V43.426H89.08zm-54.986-.9h54.082V44.332H34.094z"/><path class="cls-3" d="M114.546 89.701l-20.766.19-5.152.011v-46.39l20.406-12.826 5.512 2.951v56.064z"/><path class="cls-4" d="M88.628 90.463a.579.579 0 01-.4-.164.566.566 0 01-.167-.4V43.512a.557.557 0 01.266-.477l20.4-12.824a.569.569 0 01.568-.027l5.512 2.955a.564.564 0 01.3.5V89.7a.57.57 0 01-.559.567l-20.764.187-5.158.008zm.563-46.643v45.514l4.589-.012 20.2-.177V33.979l-4.925-2.641z"/><path class="cls-4" d="M108.879 30.981h1.126v58.531h-1.126zM91.4 87.418a.575.575 0 01-.388-.156.567.567 0 01-.177-.408V67.838a.562.562 0 01.355-.523l13.974-5.61a.562.562 0 01.775.522v24a.562.562 0 01-.54.56l-13.973.629zm.566-19.2v18.044l12.843-.576V63.061zM91.4 64.426a.606.606 0 01-.308-.086.578.578 0 01-.257-.475V45.326a.56.56 0 01.275-.482l13.975-8.383a.561.561 0 01.568-.006.568.568 0 01.286.492v20.776a.56.56 0 01-.338.517l-13.976 6.139a.513.513 0 01-.225.047zm.566-18.777V63l12.843-5.64V37.942z"/><g clip-path="url(#clip-path)"><path class="cls-7" d="M98.56 41.031l-7.163 17.756v5.078l13.976-6.142V36.947l-6.813 4.084z"/><path class="cls-8" d="M96.969 41.986l-5.572 14.213v2.588l7.163-17.756-1.591.955z"/><g><path class="cls-7" d="M96.969 41.986l-1.257.754-4.315 11.244v2.215l5.572-14.213z"/><path class="cls-8" d="M91.397 45.326v8.658l4.315-11.244-4.315 2.586z"/></g></g><g clip-path="url(#clip-path-2)"><path class="cls-8" d="M96.984 86.604l8.389-.375V63.967l-8.389 22.637z"/><path class="cls-7" d="M91.397 67.838v19.016l3.92-.176 8.53-23.84-12.45 5zM96.238 86.637l.746-.033 8.389-22.637v-1.74l-.089.035-9.046 24.375z"/><path class="cls-8" d="M103.847 62.838l-8.53 23.84.921-.041 9.046-24.375-1.437.576z"/></g><g><path class="cls-4" d="M91.4 87.418a.575.575 0 01-.388-.156.567.567 0 01-.177-.408V67.838a.562.562 0 01.355-.523l13.974-5.61a.562.562 0 01.775.522v24a.562.562 0 01-.54.56l-13.973.629zm.566-19.2v18.044l12.843-.576V63.061zM91.4 64.426a.606.606 0 01-.308-.086.578.578 0 01-.257-.475V45.326a.56.56 0 01.275-.482l13.975-8.383a.561.561 0 01.568-.006.568.568 0 01.286.492v20.776a.56.56 0 01-.338.517l-13.976 6.139a.513.513 0 01-.225.047zm.566-18.777V63l12.843-5.64V37.942z"/></g><g><path class="cls-3" d="M7.587 89.701l20.766.19 5.153.011v-46.39L13.099 30.686l-5.512 3.175v55.84z"/><path class="cls-4" d="M33.506 90.463l-5.152-.008-20.77-.187a.571.571 0 01-.56-.567v-55.84a.554.554 0 01.284-.486l5.512-3.18a.545.545 0 01.581.016l20.406 12.824a.553.553 0 01.263.477V89.9a.565.565 0 01-.166.4.577.577 0 01-.398.163zM8.152 89.145l20.206.177 4.583.012V43.82L13.087 31.344l-4.935 2.848z"/><path class="cls-4" d="M12.128 30.981h1.128v58.531h-1.128zM30.735 87.418h-.025l-13.973-.629a.562.562 0 01-.54-.56v-24a.563.563 0 01.775-.522l13.975 5.61a.562.562 0 01.353.523v19.014a.569.569 0 01-.175.408.575.575 0 01-.39.156zm-13.409-1.732l12.845.576V68.219l-12.845-5.158zM30.735 64.426a.506.506 0 01-.225-.047L16.534 58.24a.564.564 0 01-.337-.517V36.947a.568.568 0 01.286-.492.561.561 0 01.568.006l13.975 8.383a.561.561 0 01.274.482v18.539a.572.572 0 01-.256.475.609.609 0 01-.309.086zm-13.409-7.068L30.171 63V45.649l-12.845-7.707z"/><g clip-path="url(#clip-path-3)"><path class="cls-7" d="M30.735 45.326l-6.337-3.8-7.322 16.335 13.659 6.004V45.326z"/><path class="cls-8" d="M21.561 39.824l-4.799 11.493v6.406l.314.138 7.322-16.335-2.837-1.702z"/><g><path class="cls-7" d="M16.762 49.057v2.26l4.799-11.493-.985-.59-3.814 9.823z"/><path class="cls-8" d="M16.762 36.947v12.11l3.814-9.823-3.814-2.287z"/></g></g><g clip-path="url(#clip-path-4)"><path class="cls-7" d="M30.735 67.838l-13.973-5.611v24.002l7.224.322 6.749-14.832v-3.881z"/><path class="cls-8" d="M30.735 71.719l-6.749 14.832.828.037 5.921-12.404v-2.465z"/><g><path class="cls-7" d="M30.735 74.184l-5.921 12.404.788.035 5.133-10.857v-1.582z"/><path class="cls-8" d="M30.735 75.766l-5.133 10.857 5.133.231V75.766z"/></g></g><g><path class="cls-4" d="M30.735 87.418h-.025l-13.973-.629a.562.562 0 01-.54-.56v-24a.563.563 0 01.775-.522l13.975 5.61a.562.562 0 01.353.523v19.014a.569.569 0 01-.175.408.575.575 0 01-.39.156zm-13.409-1.732l12.845.576V68.219l-12.845-5.158zM30.735 64.426a.506.506 0 01-.225-.047L16.534 58.24a.564.564 0 01-.337-.517V36.947a.568.568 0 01.286-.492.561.561 0 01.568.006l13.975 8.383a.561.561 0 01.274.482v18.539a.572.572 0 01-.256.475.609.609 0 01-.309.086zm-13.409-7.068L30.171 63V45.649l-12.845-7.707z"/></g></g><g><path class="cls-8" d="M22.633 46.893a62.937 62.937 0 005.487 5.177c1.871 1.5 5.43 5.221 6.843 6.147.238-.01 2 3.685 3.437 5.369a.5.5 0 01.017.633c-2.457 3.3-3.249 5.935-5.135 7.672-.185.176-20.411-16.965-20.557-17A9.4 9.4 0 017.6 52.2c-2.8-2.933-5.357-5.617-5.711-9.656-.285-3.262-1.183-7.748.8-10.713 2.125-3.179 7.076-2.556 8.69-2.261.9.162-.817-9.3 5.914-9.48a4.521 4.521 0 013.137.729c1.475.911 1.612 2.912 1.52 4.643-.142 2.629-1.268 4.942-1.759 6.6-1.038 3.531 2.534 6.556 2.313 10.222a34.224 34.224 0 00.129 4.609z"/><path class="cls-12" d="M12.294 29.229c-.022-2.452.2-5.649 2.39-7.233 1.856-1.341 5.275-1.358 6.543.772.934 1.568.184 3.013-.405 4.535a39.89 39.89 0 00-1.011 2.949c-.839 2.813.313 5.42 1.265 8.049a12.337 12.337 0 01.909 4.982c-.086 1.741-.05 3.936-1.574 5.108-.689.527-.009 1.718.688 1.179a5.653 5.653 0 002.084-4.011 14.82 14.82 0 00-.063-5.3c-.432-1.811-1.235-3.512-1.786-5.289a7.675 7.675 0 01-.023-4.951c.879-2.826 2.932-5.834.657-8.559-1.754-2.1-5.2-2.174-7.478-.944-3.07 1.652-3.591 5.587-3.561 8.718a.683.683 0 001.365 0z"/><path class="cls-12" d="M17.153 52.211c-4.636 2.975-9.411-.318-12.163-4.311a18.538 18.538 0 01-3.19-9.542c-.147-3.391.56-7.014 4.179-8.221a8.39 8.39 0 014.846-.274c1.513.463 3.337 2.17 2.458 3.871-.4.782.777 1.473 1.18.692 1.683-3.264-1.989-6.012-4.941-6.145-3.728-.172-7.669 1.625-8.673 5.459a18.6 18.6 0 001.289 11.8c1.544 3.547 4.351 7.1 8.009 8.61a8.267 8.267 0 007.7-.758c.738-.475.052-1.655-.69-1.182zM21.908 47.262c2.084 2.146 4.36 4.115 6.593 6.1 2.064 1.836 4.125 3.69 6.276 5.424.678.549 1.65-.412.966-.963-2.152-1.736-4.212-3.591-6.277-5.425-2.233-1.983-4.51-3.953-6.593-6.1-.613-.635-1.576.334-.965.963z"/><path class="cls-12" d="M9.188 34.19c2.054-.467 5.789.158 5.161 3.027-.187.857 1.128 1.223 1.317.367.876-4.008-3.688-5.428-6.841-4.711-.857.192-.494 1.51.363 1.317z"/><path class="cls-12" d="M10.037 38.121a8.241 8.241 0 013.76-.109c1.834.457 1.877 1.908 1.7 3.517-.092.873 1.273.87 1.366 0 .206-1.9 0-3.734-1.963-4.578a8.593 8.593 0 00-5.229-.146c-.856.2-.493 1.515.364 1.316z"/><path class="cls-12" d="M10.487 42.063c1.923-.6 4.736-.864 6.109.988a3.558 3.558 0 01.377 3.043c-.416 1.092-2.393 1.281-2.862.144-.33-.8-1.652-.447-1.317.366a2.807 2.807 0 003.405 1.67c1.846-.538 2.392-1.928 2.267-3.762-.289-4.2-5.113-4.768-8.341-3.766-.836.26-.48 1.58.362 1.317z"/><path class="cls-12" d="M13.291 46.236a3.416 3.416 0 00-.684.342 2.093 2.093 0 01-.471.242.683.683 0 10.362 1.317 2.913 2.913 0 00.7-.32 4.323 4.323 0 01.46-.264.7.7 0 00.476-.842.685.685 0 00-.84-.475z"/></g><g><path d="M50.824 94.926c3.529-1 28.769.1 26.853-2.92-.646-2.248-3.057-4-3.7-6.393 7.558-2.045 9.9-4.982 9.8-6.726-.123-2.215-7.367-9.643-10.278-11.031-9.71-4.633-11.2-.872-19.548-2.329-3.186-.279-4.657.108-6.611-1.294-1.51-.194-6.4-4.811-6.94-3.4-3.077 7.991-7.512 10.61-7.4 11.009.393 1.365 5.055 4.877 8.243 6.365a70.683 70.683 0 009.581 16.719z" fill="#f6ad3c"/><path class="cls-8" d="M86.8 86.6a41.3 41.3 0 00-3.781-5.8 590.597 590.597 0 01-9.189 4.641c.128.152 4.926 7.683 6 8.822 1.6.062 9.331-.949 10.24-1.924.454-.486-2.002-3.898-3.27-5.739z"/><path class="cls-12" d="M40.837 78.531a44.375 44.375 0 004.147 9.5 50.8 50.8 0 004.04 5.938c.364.459.743.9 1.112 1.357a.732.732 0 001.038 0 .747.747 0 000-1.035c-.3-.371-.61-.734-.909-1.105-.121-.155-.407-.518-.462-.59-.077-.1-.841-1.123-1.139-1.543a47.724 47.724 0 01-4.328-7.428 40.582 40.582 0 01-2.085-5.482.733.733 0 00-1.414.386zM68.71 79.215a7.7 7.7 0 001.585 2.67.348.348 0 00.479 0 .353.353 0 000-.483c-.049-.064-.1-.119-.148-.183-.031-.041-.064-.08-.1-.121s.049.062-.011-.016a1.04 1.04 0 01-.05-.062c-.148-.2-.291-.4-.426-.606a4.865 4.865 0 01-.68-1.381.339.339 0 10-.653.182zM68.61 75.791c-.263-2.525 1.484-4.851 3.577-6.066a.338.338 0 00-.341-.584c-2.28 1.324-4.2 3.9-3.913 6.65.046.428.723.434.677 0zM44.212 72.377a2.712 2.712 0 01-.249.387c-.17.25-.34.506-.509.758A11.063 11.063 0 0042.5 75.1a.346.346 0 00.122.463 12.83 12.83 0 002.072.738c.423.1.6-.553.179-.658a10.979 10.979 0 01-1.908-.666c.04.154.08.31.121.461a11.372 11.372 0 01.952-1.577l.5-.744a3 3 0 00.254-.4.349.349 0 00-.122-.463.34.34 0 00-.461.123z"/><path class="cls-12" d="M45.675 75.09a9.567 9.567 0 00-1.523 1.541.341.341 0 00.12.465c1.091.51 2.193.99 3.3 1.472a31.337 31.337 0 003.547 1.395.34.34 0 00.178-.656 28.93 28.93 0 01-3.45-1.354 129.542 129.542 0 01-3.229-1.443l.12.463a8.932 8.932 0 011.418-1.405c.331-.287-.149-.761-.479-.478z"/><path class="cls-8" d="M47.499 73.102l3.707 6.531 1.246-1.547 3.208-4.016-8.161-.968z"/><path class="cls-12" d="M47.6 73.9a62.857 62.857 0 003.314 5.905c.247.351.833.015.583-.344a63.342 63.342 0 01-3.315-5.9c-.207-.381-.792-.041-.582.341z"/><path class="cls-12" d="M51.911 79.457a38.025 38.025 0 013.561-4.566c.3-.321-.18-.8-.478-.481a38.957 38.957 0 00-3.666 4.7c-.248.362.339.7.583.344z"/><path class="cls-12" d="M51.555 80.133a31.676 31.676 0 007.2-2.125.338.338 0 00.069-.529q-.77-.739-1.539-1.473c-.314-.3-.794.176-.479.48q.771.733 1.54 1.471c.022-.178.044-.353.068-.533a31.012 31.012 0 01-7.037 2.055c-.429.074-.247.724.182.654z"/><path class="cls-12" d="M57.38 76.9a19.405 19.405 0 005.847-.989c.281-.091.756-.158.758-.541a1.47 1.47 0 00-.222-.619c-.133-.264-.276-.529-.411-.8-.066-.129-.135-.252-.19-.384a5.507 5.507 0 01-.044-.122c-.006-.015-.035-.152-.023-.052-.049-.428-.729-.432-.676 0a4.275 4.275 0 00.6 1.379c.1.187.2.4.279.568a.432.432 0 00.022.078c-.031-.141.04-.25.213-.332-.057.02-.114.043-.173.061-.206.072-.413.144-.625.211a18.861 18.861 0 01-5.35.861.339.339 0 000 .678zM50.714 79.455A56.072 56.072 0 0057.388 91.4q1.113 1.568 2.3 3.088c.267.341.744-.139.479-.483a68.155 68.155 0 01-7.3-11.363 40.397 40.397 0 01-1.493-3.367c-.157-.4-.813-.225-.655.185zM57.386 81.9a14.116 14.116 0 001.025 2.953c.364.8.662 1.775 1.56 2.129a2.674 2.674 0 001.255.018 11.9 11.9 0 001.2-.191 7.579 7.579 0 002.1-.77 7.146 7.146 0 002.07-1.808c.268-.338-.208-.823-.479-.483a6.447 6.447 0 01-3.422 2.3 10.472 10.472 0 01-2.1.34c-.9.055-1.185-.967-1.492-1.631a14 14 0 01-1.066-3.035c-.086-.426-.74-.248-.654.182z"/><path class="cls-12" d="M57.964 82.057a12.449 12.449 0 016.6-2.422c.431-.027.435-.7 0-.674a13.066 13.066 0 00-6.937 2.51c-.347.258-.011.844.341.586z"/><path class="cls-12" d="M64.266 79.473c.662 1.531 1.239 3.1 1.9 4.635a.338.338 0 00.585-.34c-.662-1.534-1.237-3.106-1.9-4.643a.339.339 0 00-.461-.117.347.347 0 00-.123.465z"/><path class="cls-12" d="M58.482 83.168a15.912 15.912 0 016.153-2.387.346.346 0 00.337-.339.34.34 0 00-.337-.34 16.773 16.773 0 00-6.494 2.48c-.369.229-.031.815.341.586zM73.131 68.453a4.349 4.349 0 012.068.973 14.963 14.963 0 011.922 1.92c1.316 1.521 2.606 3.086 3.8 4.707a37.61 37.61 0 012.054 3.094.733.733 0 001.265-.741 46.8 46.8 0 00-4.007-5.617 137.11 137.11 0 00-1.931-2.32 15.972 15.972 0 00-2.002-2.026 5.875 5.875 0 00-2.783-1.406.76.76 0 00-.9.512.739.739 0 00.513.9z"/><path class="cls-12" d="M71.086 83.74c.6.686 1.221 1.354 1.842 2.026a.792.792 0 00.769.2c3.84-1.154 8.45-2.8 10.553-6.488a.79.79 0 00-1.363-.8c-1.885 3.3-6.182 4.732-9.612 5.763l.77.2a97.473 97.473 0 01-1.84-2.022c-.671-.771-1.785.354-1.119 1.115z"/><path class="cls-12" d="M82.157 81.072a60.56 60.56 0 015.926 9.155.734.734 0 001.269-.739 62.808 62.808 0 00-6.152-9.455.736.736 0 00-1.038 0 .754.754 0 000 1.039zM73.1 86a38.3 38.3 0 005.087 7.311 12.686 12.686 0 001.552 1.47.759.759 0 001.037 0 .737.737 0 000-1.037 16.307 16.307 0 01-2.7-2.834 40.114 40.114 0 01-2.525-3.644c-.409-.658-.8-1.328-1.181-2-.457-.83-1.726-.09-1.267.738zM33.139 72.375c2.059-.816 3.268-2.822 4.01-4.812a15.006 15.006 0 00.922-6.579 6.714 6.714 0 00-.881-3.009.752.752 0 00-1-.258.741.741 0 00-.263 1 4.594 4.594 0 01.245.449c.02.037.079.186 0-.016.019.047.035.084.051.131.041.1.076.207.11.313.061.193.11.39.151.582.019.088.037.176.052.262.01.054.019.1.028.162 0 .037.038.285.011.074a12.93 12.93 0 010 2.969 11.43 11.43 0 01-.046.39c.024-.179-.007.037-.01.057-.009.068-.02.129-.03.2-.045.281-.1.563-.158.842a14.848 14.848 0 01-.414 1.523c-.08.245-.166.493-.261.731l-.072.18c-.08.193.06-.135-.024.058-.052.115-.1.233-.159.346a9.4 9.4 0 01-.751 1.318 5.587 5.587 0 01-.237.328c.1-.132-.1.114-.136.163a6.5 6.5 0 01-.538.55c-.041.033-.082.073-.123.1s-.221.17-.059.051c-.1.072-.2.142-.3.207a3.481 3.481 0 01-.312.179c-.045.026-.093.047-.137.069-.188.093.06-.02-.058.027a.751.751 0 00-.512.9.734.734 0 00.9.51z"/></g><path class="cls-12" d="M12.52 54.844c3.287 3.351 6.9 6.41 10.44 9.482 4.332 3.75 8.711 7.455 13.209 11a61.34 61.34 0 004.975 3.69c.862.548 1.655-.817.8-1.362a104.978 104.978 0 01-10.4-8.117q-6.652-5.519-13.091-11.287c-1.635-1.473-3.273-2.949-4.816-4.523-.713-.729-1.83.392-1.117 1.117z"/><g><path class="cls-3" d="M27.432 90.117V93.219l2.606 1.818h62.229l2.606-1.818V90.117H27.432z"/><path class="cls-4" d="M92.267 95.6H30.038a.568.568 0 01-.323-.1l-2.607-1.82a.573.573 0 01-.239-.463v-3.1a.563.563 0 01.563-.564h67.441a.562.562 0 01.563.564v3.1a.572.572 0 01-.241.463l-2.6 1.82a.566.566 0 01-.328.1zm-62.05-1.129H92.09l2.216-1.549V90.68H28v2.244z"/><path class="cls-4" d="M27.804 93.059l2.347 1.633h62.52l2.348-1.633H27.804z"/></g><g><path class="cls-8" d="M105.425 11.368c-2.834-4.815-8.669-5.112-14.564-3.493a39.447 39.447 0 00-14.916 8.014 57.7 57.7 0 00-5.071 3.923 51.633 51.633 0 00-4.468 4.436c-.554.789-1.167 2.317-1.948 3.4s-3.839 1.437-4.613.041c-.921-1.657-.321-5.941-1.256-12.466s-2.4-12.786-6.642-13.8C47.374.6 38.782 1.8 33.623 4.606s-8.013 7.157-3.363 12.572c1.926 1.615 4.284 1.377 6.818 1.217s6.092-1.237 7.837-1.553c3.8 10.014 2.737 9.748-.5 11.189-2.83 1.266-6.951.832-12.209 11.881-.609 1.276-2.237 1.8-2.965 3.307C19.46 63.5 42.608 75.85 58.22 74.512 76.962 72.9 89.985 53.994 75.943 35.436c-1.068-1.41 1.847-2.18 4.013-3.948 3.687-3 10.259-7.127 14.654-7.992 9.559-1.878 13.32-5.039 10.815-12.128z"/><path class="cls-14" d="M51.594 27.207s.43.428.473.457c1.224.176 2.776-.088 3.339-.012a.958.958 0 001.013-1.113c-.5-2.477-2.707-12-3.125-12.8s-.959-1.032-2.635-.446a7.571 7.571 0 00-1.708 1.036.95.95 0 00-.452 1c.607 3.104 3.095 11.878 3.095 11.878z"/><path d="M60.776 62.266c-.285-.078-.568-.16-.853-.237a.772.772 0 01-.337-.023c-.39-.1-.78-.221-1.167-.342-.292-.06-.584-.123-.877-.18-1.871-.365-3.757-.445-5.481-1.324q-1.161-.142-2.321-.3a52.6 52.6 0 01-8.388-1.739 5.505 5.505 0 00-.423.428.905.905 0 01.087.316c.138 1.58.357 3.145.588 4.707a13.8 13.8 0 00.978 2.4 10.12 10.12 0 00.732 1.2c.031.01.059.022.09.035a12 12 0 002.687 2.153 5.086 5.086 0 00.521.474 8.115 8.115 0 001.991.51c2.662.35 5.864.58 8.245-.869a12.462 12.462 0 003.259-2.84c.135-.305.266-.619.393-.93l.019-.107a.012.012 0 010-.01c.149-.775.451-1.521.553-2.3a1.239 1.239 0 00-.296-1.022z" fill="#762b1b"/><path class="cls-12" d="M60.554 27.686c-.711-7.081-1.252-14.157-3.166-21.044a8.76 8.76 0 00-3.4-5.175 8.345 8.345 0 00-3.87-.989 28.592 28.592 0 00-5.093.078 35.855 35.855 0 00-9.3 2.151 15.624 15.624 0 00-7.042 4.7 7.106 7.106 0 00-1.312 6.882A7.474 7.474 0 0033.7 18.9a25.771 25.771 0 009.161-1.283 68.834 68.834 0 008.567-3.055c.838-.36.115-1.584-.718-1.226a48.5 48.5 0 01-14.175 4.11c-2.557.245-4.982.044-6.795-2.009a5.319 5.319 0 01-.281-6.674c1.522-2.339 4.11-3.72 6.649-4.687a34.532 34.532 0 018.206-2.025 31.778 31.778 0 013.911-.237 12.517 12.517 0 014.368.515c1.82.727 2.842 2.689 3.367 4.471 2.01 6.792 2.473 13.878 3.178 20.882.089.9 1.513.914 1.419 0z"/><path class="cls-12" d="M44.23 17.029c.989 3.03 1.607 6.153 2.5 9.209a.712.712 0 001.372-.38c-.895-3.055-1.513-6.173-2.5-9.206-.283-.864-1.657-.5-1.372.377z"/><path class="cls-16" d="M58.011 68.537a9.349 9.349 0 001.932-2.879c.251-.662.423-1.343.709-1.982a25.563 25.563 0 00-5.352-1.059 13.909 13.909 0 00-12.383 4.241c4.08 5.269 10.7 3.681 11.512 3.591a16.52 16.52 0 003.486-1.787.649.649 0 01.096-.125z"/><path class="cls-12" d="M75.874 35.824c4.966-4.326 10.18-8.414 16.4-10.773 2.659-1.012 5.438-1.486 8.131-2.353 2.183-.7 4.508-1.8 5.821-3.764 1.645-2.459.968-5.9-.505-8.263a9.766 9.766 0 00-7.437-4.521 20.071 20.071 0 00-9.4 1.645 54.65 54.65 0 00-8.782 4.42 60.489 60.489 0 00-17.415 15.939c-.532.745.7 1.455 1.229.713a57.978 57.978 0 0114.278-13.714 59.269 59.269 0 018.274-4.783 27.95 27.95 0 018.6-2.78c3.072-.345 6.33.189 8.492 2.58 1.926 2.121 3.212 5.943 1.156 8.4a10.908 10.908 0 01-5.64 3.037 65.755 65.755 0 00-7.962 2.374c-6.136 2.48-11.3 6.533-16.25 10.839-.69.6.317 1.608 1 1.006zM48.55 26.084a20.455 20.455 0 00-17.03 13.641c-.313.859 1.062 1.234 1.371.379 2.418-6.7 8.474-11.918 15.659-12.6.905-.082.912-1.508 0-1.422z"/><path class="cls-12" d="M31.808 39.373a17.738 17.738 0 00-4.952 18.981c2.379 6.814 8.614 11.312 15.044 13.988a35.544 35.544 0 0023.164 1.748c7.225-2.035 12.926-6.854 15.49-13.982a26.678 26.678 0 001.187-13.858 24.011 24.011 0 00-6.414-12.006c-.641-.654-1.647.354-1 1.006a22.894 22.894 0 015.664 9.772 24.326 24.326 0 01-.123 12.486 20.593 20.593 0 01-13.061 14.521 32.894 32.894 0 01-21.631.026C39.026 70 32.743 66.436 29.448 60.639a16.374 16.374 0 013.365-20.26c.693-.6-.316-1.6-1.005-1.006zM46.8 31.973a4.373 4.373 0 015.386.875c.483.527 1.264-.258.783-.78a5.491 5.491 0 00-6.726-1.048c-.624.339-.068 1.293.557.953z"/><path class="cls-12" d="M63.553 36.582a4.625 4.625 0 016.031 2.006.554.554 0 00.956-.559 5.752 5.752 0 00-7.546-2.4c-.646.3-.085 1.25.559.957z"/><path class="cls-8" d="M49.047 44.811a7.571 7.571 0 01-8.409 6.615 7.806 7.806 0 012.307-15.412 7.577 7.577 0 016.102 8.797z"/><path class="cls-12" d="M41.681 52.162a7.448 7.448 0 01-1.142-.084 8.463 8.463 0 012.506-16.713 8.242 8.242 0 016.655 9.543 8.654 8.654 0 01-3.187 5.549 7.806 7.806 0 01-4.832 1.705zm.234-15.568a7.009 7.009 0 00-6.727 6.135 6.925 6.925 0 005.546 8.047 6.441 6.441 0 004.966-1.354 7.337 7.337 0 002.7-4.709 6.681 6.681 0 00-6.481-8.119z"/><path class="cls-12" d="M49.048 45.414c-.472 3.153-3.521 6.651-7.81 6.008-3.35-.5-5.429-4.125-4.91-7.695.6-4.145 3.7-6.491 7.048-5.987s6.387 2.903 5.672 7.674z"/><path class="cls-12" d="M42.239 51.611a6.646 6.646 0 01-1.019-.078c-3.257-.49-5.55-4.07-5-7.822a7.424 7.424 0 012.77-4.992 5.876 5.876 0 014.406-1.094 7.235 7.235 0 014.427 2.275 6.679 6.679 0 011.336 5.531 7.681 7.681 0 01-2.51 4.492 6.633 6.633 0 01-4.41 1.688zm.253-13.83A5.645 5.645 0 0039.12 38.9a7.211 7.211 0 00-2.682 4.843c-.528 3.633 1.678 7.1 4.815 7.567a6.349 6.349 0 005.247-1.554 7.467 7.467 0 002.436-4.356 6.457 6.457 0 00-1.286-5.352 7 7 0 00-4.293-2.2 6.173 6.173 0 00-.865-.067z"/><path class="cls-8" d="M43.108 42.565a2.211 2.211 0 11-1.823-2.694 2.308 2.308 0 011.823 2.694z"/><path class="cls-12" d="M40.876 44.746a2.069 2.069 0 01-.32-.029 2.212 2.212 0 01-1.513-.971 2.62 2.62 0 01-.4-1.851 2.323 2.323 0 114.58.685 2.46 2.46 0 01-2.347 2.166zm.105-4.785a2.228 2.228 0 00-2.119 1.969 2.383 2.383 0 00.369 1.689 1.99 1.99 0 001.36.877A2.2 2.2 0 0043 42.547a2.2 2.2 0 00-1.729-2.568 1.975 1.975 0 00-.29-.018z"/><path class="cls-8" d="M73.219 50.348a8.015 8.015 0 11-6.769-8.895 7.9 7.9 0 016.769 8.895z"/><path class="cls-12" d="M65.368 57.611a9.03 9.03 0 01-1.325-.1 8.771 8.771 0 01-5.692-3.348 8.3 8.3 0 011.774-11.834 8.734 8.734 0 016.424-1.529 8.578 8.578 0 017.324 9.644 8.534 8.534 0 01-8.505 7.167zm-.154-15.591a7.372 7.372 0 00-4.32 1.384 6.985 6.985 0 00-1.494 9.965 7.42 7.42 0 004.838 2.84A7.136 7.136 0 1066.354 42.1a8 8 0 00-1.14-.08z"/><path class="cls-12" d="M73.228 50.953a7.35 7.35 0 01-8.434 5.912 6.8 6.8 0 01-5.454-7.775 6.57 6.57 0 017.6-5.9c3.66.541 7.005 2.992 6.288 7.763z"/><path class="cls-12" d="M65.985 57.067a7.986 7.986 0 01-1.207-.09 6.949 6.949 0 01-5.551-7.9 7.153 7.153 0 012.725-4.806 6.661 6.661 0 015.006-1.2 8.3 8.3 0 014.851 2.338 6.41 6.41 0 011.531 5.557 7.332 7.332 0 01-2.676 4.473 7.421 7.421 0 01-4.679 1.628zm-.1-13.852a6.318 6.318 0 00-3.8 1.236 6.938 6.938 0 00-2.636 4.657 6.723 6.723 0 005.361 7.648 7.2 7.2 0 005.71-1.492 7.11 7.11 0 002.6-4.328l.111.017-.111-.017a6.123 6.123 0 00-1.473-5.373 8.1 8.1 0 00-4.722-2.263 6.7 6.7 0 00-1.042-.085z"/><path class="cls-8" d="M66.715 48.016a2.406 2.406 0 11-2.023-2.727 2.4 2.4 0 012.023 2.727z"/><path class="cls-12" d="M64.34 50.17a2.851 2.851 0 01-.376-.029 2.509 2.509 0 11.376.029zm-.007-4.8a2.3 2.3 0 10.341.027 2.326 2.326 0 00-.341-.022z"/><path class="cls-8" d="M51.586 55.7c-.128.858-1.512 1.364-3.092 1.127s-2.758-1.127-2.63-1.986 1.516-1.363 3.094-1.119 2.758 1.116 2.628 1.978z"/><path class="cls-12" d="M49.282 57.555a6.4 6.4 0 01-.888-.067 5.042 5.042 0 01-2.259-.888 1.807 1.807 0 01.5-3.366 5.046 5.046 0 012.42-.181 4.988 4.988 0 012.26.889 2 2 0 01.933 1.857c-.159 1.072-1.376 1.756-2.966 1.756zm-1.093-3.227a3.283 3.283 0 00-1.089.172c-.324.117-.546.289-.57.444s.141.38.416.587a3.764 3.764 0 001.65.633c1.363.205 2.284-.248 2.331-.562.023-.153-.141-.383-.414-.59a3.758 3.758 0 00-1.65-.627 4.163 4.163 0 00-.674-.057z"/><path class="cls-12" d="M47.578 57.567l-.205.914a.589.589 0 00.058.435.572.572 0 00.336.26.563.563 0 00.437-.059.571.571 0 00.258-.334c.069-.306.136-.611.2-.92a.569.569 0 00-.394-.7.614.614 0 00-.435.059.558.558 0 00-.26.34z"/><path class="cls-12" d="M39.574 58.4q8.271 1.579 16.481 3.471 2.338.538 4.671 1.1l-.414-.545a7.9 7.9 0 01-2.492 5.408 8.957 8.957 0 01-4.6 2.146 9.806 9.806 0 01-3.2-.013 17.9 17.9 0 01-1.824-.447 7.089 7.089 0 01-1.314-.475 10.293 10.293 0 01-3.995-3.643 8.3 8.3 0 01-.594-1.052l-.044-.1a.455.455 0 01-.02-.047c-.05-.135-.1-.268-.146-.4a9.384 9.384 0 01-.28-1.018 8.61 8.61 0 01.109-3.99.564.564 0 00-1.087-.3 9.445 9.445 0 00.762 6.939 11.784 11.784 0 004.083 4.231 11.471 11.471 0 003.245 1.235 11.677 11.677 0 003.772.285 10.339 10.339 0 005.519-2.194 8.993 8.993 0 003.234-6.56.571.571 0 00-.415-.545q-8.19-1.967-16.446-3.643c-1.567-.318-3.136-.621-4.706-.925a.58.58 0 00-.694.4.566.566 0 00.395.691zM59.7 28.41a10.7 10.7 0 013.419.787c.847.344 1.217-1.029.377-1.371a11.7 11.7 0 00-3.8-.834c-.915-.054-.911 1.367 0 1.418z"/><path class="cls-16" d="M29.682 51.006a12.783 12.783 0 00-1.041 1.832.6.6 0 00-.059.436.584.584 0 00.259.337.577.577 0 00.773-.2 13 13 0 011.043-1.836.564.564 0 10-.975-.566zM31.651 51.508a13.018 13.018 0 00-1.043 1.836.612.612 0 00-.057.432.6.6 0 00.26.337.571.571 0 00.772-.2 13.537 13.537 0 011.042-1.836.566.566 0 00-.2-.771.581.581 0 00-.772.205zM69.052 60.475a13.2 13.2 0 00-1.044 1.834.612.612 0 00-.056.433.59.59 0 00.258.342.575.575 0 00.773-.207 13.271 13.271 0 011.042-1.832.564.564 0 00-.2-.771.577.577 0 00-.772.2zM71.021 60.977a13.328 13.328 0 00-1.043 1.834.612.612 0 00-.057.437.566.566 0 001.032.133A13.328 13.328 0 0172 61.547a.568.568 0 00-.2-.771.578.578 0 00-.772.2z"/><path class="cls-14" d="M68.778 30.928c-1.007-.74-.706-1.635.049-2.629a58.466 58.466 0 0110.7-9.871C83.068 16 91.834 11.5 96.794 11.627s4.327 3.885 3.187 5C98.086 18.479 89.863 19.341 83.9 22.9c-3.852 2.3-8.255 6.738-10.164 8.707-1.108 1.148-1 1.506-1.833 1.465a29.6 29.6 0 01-3.125-2.144z"/></g></g><g><path class="cls-17" d="M132.719 25.761h-2.506V14.18h2.506zm10.717-2.809c0 7.3-5.985 8.491-11.408 8.9l-.821-2.334c5.7-.324 9.68-1.21 9.68-6.395v-9.289h2.549zM164.4 14.957c-.411 6.59-2.182 14.347-13.85 16.767l-1.015-2.269c9.7-1.836 11.494-7.26 12.1-12.1H147.7v-2.4zM167.366 22.109v-2.052h8.1l-.022-2.917h2.14l.022 2.917h4.126v2.052h-4.126l.064 7.368c.022 2.636-2.031 2.636-3.068 2.636-.173 0-1.167 0-2.182-.108l-.3-2.074c.865.108 2.572.194 2.658.194.626 0 .756-.13.756-.864l-.022-5.034a22.724 22.724 0 01-7.454 6.417l-1.275-1.794a21.534 21.534 0 008.124-6.741zM200.112 21.5v2.528h-14.833V21.5zM202.682 28.591c.064 0 1.814-.022 2.009-.022a135.252 135.252 0 004.581-14.843l2.614.454a99.985 99.985 0 01-4.775 14.346c3.781-.151 6.05-.237 9.853-.627a40.907 40.907 0 00-3.436-5.639l2.074-1.037a38.153 38.153 0 015.467 9.615l-2.42 1.059c-.238-.648-.346-.994-.756-1.945-4.322.476-7.973.886-14.952 1.145zM237.258 26.085a13.625 13.625 0 002.031-3.846l1.923 1.448a15.133 15.133 0 01-2.484 4.191l2.614 3.111h-3.025l-1.232-1.49a8.425 8.425 0 01-5.207 1.836c-3.651 0-5.877-2.485-5.877-5.4 0-2.961 2.161-4.214 3.867-5.208a5.723 5.723 0 01-1.706-3.586c0-2.118 1.729-3.63 4.343-3.63 2.377 0 4.148 1.383 4.148 3.608 0 2.2-1.469 3.047-3.414 4.149zm-6.028-3.717c-1.362.778-2.809 1.621-2.809 3.5a3.3 3.3 0 003.587 3.24 5.911 5.911 0 003.651-1.361zm.648-2.722c1.621-.864 2.463-1.448 2.463-2.485 0-.778-.5-1.642-1.9-1.642-1.232 0-1.966.713-1.966 1.642 0 .259-.022.8 1.167 2.2zM251.309 28.051a45.032 45.032 0 01-6.46 2.139l-.324-2.4a17.6 17.6 0 002.635-.54v-7.28h-2.311v-2.2h2.311v-5.12h2.183v5.12h1.814v2.2h-1.814v6.677c.972-.282 1.21-.368 1.814-.562zm3.37-13.137a19.909 19.909 0 00-1.123-2.074l2.16-.411a12.485 12.485 0 011.124 2.485h2.723a10.17 10.17 0 001.21-2.485l2.268.411a16.246 16.246 0 01-1.231 2.074h2.873v7.973h-12.964v-7.973zm9.4 9.161v8.47H252.3v-8.47zm-6.849-7.519h-3.5v1.577h3.5zm0 3.112h-3.5v1.6h3.5zm4.754 6.114h-7.52v1.707h7.52zm0 3.241h-7.52v1.751h7.52zm.712-12.467h-3.566v1.577h3.57zm0 3.112h-3.566v1.6h3.57zM274.779 30.816a12.206 12.206 0 005.208-3.349 14.787 14.787 0 01-2.55-5.963 11.927 11.927 0 01-1.3 1.448l-1.47-1.3v.476h-5.293v6.352a.739.739 0 00.734.821h1.815c.627 0 .757-.216.886-.864a19.552 19.552 0 00.238-2.226l2.2.5a18.184 18.184 0 01-.605 3.63 1.914 1.914 0 01-1.793 1.1h-4.063a1.589 1.589 0 01-1.6-1.685v-9.743h5.25v-4.472h-5.919V13.4h8.145v7.693c1.686-1.426 3.306-4.43 3.911-8.621l2.333.3a23.832 23.832 0 01-.756 3.155h6.612v2.247h-1.448a19.6 19.6 0 01-2.571 9.139 17.786 17.786 0 004.451 3.458l-1.383 2.074a18.562 18.562 0 01-4.472-3.674 17.938 17.938 0 01-5.207 3.738zm4.559-12.639a11.123 11.123 0 01-.476 1.058 16.8 16.8 0 002.486 6.288 17.68 17.68 0 001.858-7.346zM296.025 23.168c-1.492.324-6.2 1.059-7.65 1.231l-.346-1.987c.195-.022 3.069-.3 3.587-.368v-2.16h-2.571v-1.729h.151l-1.361-1.4a10.421 10.421 0 003.263-4.214l2.117.389a6.9 6.9 0 01-.346.908h5.057v1.729h-3.284a11.324 11.324 0 01.583 1.123l-2.117.778a10.592 10.592 0 00-.692-1.9h-.561a12.328 12.328 0 01-2.291 2.592h6.611v1.729h-2.527v1.944c1.468-.173 1.922-.259 2.527-.367v1.253c1.751-1.1 1.967-2.29 2.053-4.883h7.778v4.014c0 .389.087.475.26.475.475 0 .518 0 .561-.583 0-.173.022-1.016.022-1.21l1.858.5c-.108 2.29-.173 3.025-1.361 3.025h-2.009A1.3 1.3 0 01304 22.585v-3.069h-3.889a6.06 6.06 0 01-2.658 4.905h1.859v.886h9.117v1.858h-7.367c1.015.8 2.441 1.9 7.691 3.154l-.972 2.032a21.111 21.111 0 01-8.469-4.343v4.861h-2.1v-4.883a18.81 18.81 0 01-8.383 4.365l-.885-2.053a18.938 18.938 0 007.6-3.133h-7.39v-1.858h9.053v-.735zm4.818-7.6a8.224 8.224 0 01-1.534 1.965l-1.837-1.274a7.966 7.966 0 002.4-3.608l2.182.324c-.129.367-.194.561-.3.864h6.676v1.729h-4.277a5.892 5.892 0 01.561 1.1l-1.944.8a34.385 34.385 0 00-.843-1.9zm.713 4.321a15.893 15.893 0 012.268 2.247l-1.4 1.318a18.072 18.072 0 00-2.2-2.269z"/></g></svg>